<?xml version="1.0" encoding="utf-8"?>
<!-- Generator: Adobe Illustrator 17.1.0, SVG Export Plug-In . SVG Version: 6.00 Build 0)  -->
<!DOCTYPE svg PUBLIC "-//W3C//DTD SVG 1.1//EN" "http://www.w3.org/Graphics/SVG/1.1/DTD/svg11.dtd">
<svg version="1.1" id="Capa_1" xmlns="http://www.w3.org/2000/svg" xmlns:xlink="http://www.w3.org/1999/xlink" x="0px" y="0px"
	 viewBox="0 0 600 600" enable-background="new 0 0 600 600" xml:space="preserve">
<circle fill="#FF632F" stroke="#FF632F" stroke-width="30" stroke-miterlimit="10" cx="300" cy="300" r="257.4"/>
<g>
	<g id="Layer_5_41_">
		<g>
			<path fill="#FFFFFF" d="M252.1,192.6c-50.5,0-91.5,41-91.5,91.5v29.1c0,24.8,8.2,47.5,24.3,64c2.2,1.6,3.6,0.5,4.6-0.1
				c7.3-4.7,15.9-9.6,25.5-12l0,0c5.9-1.5,8-2.3,12.3-3.3c2.2-0.5,2.3-1.8-0.6-2.6c-26.1-7.4-39.1-32.6-39.1-62.3c0,0,0-14.9,0-19.9
				c0-2,1-2.7,2.6-2.7c5,0,16.1,0,20.5,0c1.8,0,2.2-1.1,2.6-2.8c1-3.8,3-21.4,5.5-21.3c2.5,0.1,4.3,17.8,5.2,21.5
				c0.3,1.5,0.8,2.6,2.4,2.6c3.2,0,7.4,0,12.1,0c24.8,0,66,0,76,0c1.5,0,2.3,0.9,2.3,2.8c0,4.9,0,19.8,0,19.8
				c0,30.3-13.4,55.8-40.3,62.7c-2.3,0.6-1.9,1.6-0.1,1.9c4,0.6,6,1.5,12,2.8c9.8,2.3,20.2,7.6,28.1,12.2c0.9,0.5,2.3,1.2,4.4-0.6
				c15.5-16.4,23-38.2,23-62.6V284C343.5,233.5,302.6,192.6,252.1,192.6z"/>
			<path fill="#FFFFFF" d="M296.8,379.1c-3.2-1.3-6.5-2.4-10.1-3.4c-0.5-0.1-1.2-0.5-2.2-0.5c-0.5,0-1.2,0.2-2,0.9
				c-1.7,1-3.4,1.9-5.1,2.8c-7.5,3.3-15.3,4.7-24.5,4.7c-12.1,0-22-2.6-31.6-8.4c-1.4-1.1-2.3-0.6-2.7-0.5
				c-29.3,6.8-49.8,24.7-49.8,58.6v15.8l0,0c0,3.9,0.1,23.4,0.1,31c0,2.2-0.1,3.5,3,3.5c16.2,0.1,135,0.2,160.2,0.1
				c3.1,0,3-1.4,3-3.5c0-7.6,0.1-26.2,0.1-30.1l0,0v-15.8C335.2,405,319.9,387.8,296.8,379.1z M255.5,446.6c-0.4,0.9-1.1,2.2-3,2.2
				c-1.7,0-2.6-1.5-3.1-2.3c-8.5-16-49.3-50.3-49.3-50.3c-0.5-0.7,0.1-1.2,0.5-1.4c3-1,14.4-10.2,17.6-10.9c0.5-0.1,1.5-0.3,2.7,0.5
				c9.6,5.9,19.6,8.4,31.6,8.4c9.1,0,17-1.5,24.5-4.7c1.7-0.9,3.4-1.8,5.1-2.8c0.9-0.7,1.6-0.9,2.1-0.9c0.9,0,1.6,0.3,2.2,0.5
				c2.8,0.7,13.7,9.9,16.3,10.9c0.6,0.2,1.6,1,1,2C303.7,397.6,263.4,430.6,255.5,446.6z M314.1,441.9H283v-6.8h31.1V441.9z"/>
			<path fill="#FFFFFF" d="M377.7,203.7c-1.1,0-2-0.9-2-2v-34.4c0-1.1-0.9-2-2-2H366c-1.1,0-2,0.9-2,2v46c0,1.1,0.9,2,2,2h45.1
				c1.1,0,2-0.9,2-2v-7.6c0-1.1-0.9-2-2-2L377.7,203.7L377.7,203.7z"/>
			<path fill="#FFFFFF" d="M371.2,120c-25.7,0-48.8,11.2-64.7,28.9c-6.4,7.2-11,13.8-14.7,22.8c-0.6,1.6,0.8,2,1.6,2.3
				c3.7,1.1,7.3,2.3,10.7,3.8c0.9,0.3,2.4,0.8,3.2-0.6c3-7,6.4-11.8,11.4-17.4c12.8-14.3,31.6-23.4,52.4-23.4
				c38.9,0,70.3,31.5,70.3,70.3c0,2.3-0.1,4.6-0.3,6.9c-3.5,35.6-33.5,63.5-70,63.5c-5,0-5.2,3.1-5.2,3.1s-0.3,8.1,0.1,11.1
				c0.2,2.2,2,2.2,2,2.2c1.7,0.1,1.4,0,3.1,0c45.6,0,82.9-35.2,86.5-79.8c0.2-2.3,0.3-4.6,0.3-6.9C458,158.8,419.1,120,371.2,120z"
				/>
		</g>
	</g>
</g>
</svg>
