<?xml version="1.0" encoding="utf-8"?>
<!-- Generator: Adobe Illustrator 17.1.0, SVG Export Plug-In . SVG Version: 6.00 Build 0)  -->
<!DOCTYPE svg PUBLIC "-//W3C//DTD SVG 1.1//EN" "http://www.w3.org/Graphics/SVG/1.1/DTD/svg11.dtd">
<svg version="1.1" id="Capa_1" xmlns="http://www.w3.org/2000/svg" xmlns:xlink="http://www.w3.org/1999/xlink" x="0px" y="0px"
	 viewBox="-229.2 -229.2 1056.1 1053.1" enable-background="new -229.2 -229.2 1056.1 1053.1" xml:space="preserve">
<circle fill="none" stroke="#FFFFFF" stroke-width="30" stroke-miterlimit="10" cx="306" cy="306" r="453"/>
<g>
	<g id="Layer_5_41_">
		<g>
			<path fill="#FFFFFF" d="M221.6,116.9c-88.9,0-161,72.1-161,161v51.2c0,43.7,14.5,83.6,42.8,112.6c3.9,2.8,6.3,0.9,8.1-0.2
				c12.9-8.3,27.9-16.9,44.8-21.1l0,0c10.3-2.6,14.1-4,21.6-5.8c3.8-0.9,4.1-3.2-1-4.6c-45.9-13-68.9-57.3-68.9-109.7
				c0,0,0-26.3,0-35.1c0-3.6,1.7-4.7,4.5-4.7c8.8,0,28.3,0,36.1,0c3.1,0,3.8-2,4.6-4.9c1.7-6.7,5.3-37.6,9.7-37.5
				c4.4,0.1,7.6,31.3,9.1,37.8c0.6,2.7,1.4,4.6,4.3,4.6c5.7,0,13,0,21.3,0c43.7,0,116.2,0,133.8,0c2.6,0,4,1.6,4,4.9
				c0,8.7,0,34.9,0,34.9c0,53.3-23.5,98.2-71,110.3c-4.1,1-3.4,2.9-0.2,3.3c7.1,1,10.6,2.6,21.1,4.9c17.2,4.1,35.6,13.3,49.4,21.5
				c1.5,0.9,4,2.2,7.7-1.1c27.2-28.8,40.5-67.3,40.5-110.1v-51.2C382.6,189,310.5,116.9,221.6,116.9z"/>
			<path fill="#FFFFFF" d="M300.4,445.3c-5.6-2.3-11.5-4.3-17.7-6c-0.8-0.2-2.2-0.8-3.8-0.8c-0.9,0-2.2,0.4-3.6,1.6
				c-3,1.8-6,3.4-9,4.9c-13.2,5.8-27,8.3-43.1,8.3c-21.3,0-38.8-4.5-55.7-14.8c-2.4-1.9-4-1-4.8-0.9c-51.6,12-87.7,43.4-87.7,103.1
				v27.8l0,0c0,6.8,0.1,41.2,0.2,54.5c0,3.8-0.2,6.1,5.3,6.2c28.6,0.2,237.6,0.4,282,0.1c5.5,0,5.3-2.4,5.3-6.2
				c0-13.3,0.1-46.2,0.2-53c0,0,0,0,0,0v-27.8C367.9,490.9,341,460.5,300.4,445.3z M227.6,564c-0.7,1.5-2,3.8-5.2,3.8
				c-3,0-4.6-2.6-5.4-4.1c-15-28.2-86.7-88.6-86.7-88.6c-0.8-1.2,0.2-2.2,0.9-2.4c5.2-1.8,25.3-17.9,30.9-19.2
				c0.8-0.2,2.7-0.6,4.8,0.9c16.9,10.3,34.5,14.8,55.7,14.8c16.1,0,29.9-2.6,43.1-8.3c3-1.5,6-3.1,9-4.9c1.5-1.2,2.8-1.5,3.7-1.5
				c1.6,0,2.9,0.5,3.8,0.8c4.9,1.3,24.1,17.4,28.7,19.1c1.1,0.4,2.9,1.8,1.8,3.5C312.6,477.8,241.5,535.9,227.6,564z M330.8,555.7
				H276v-11.9h54.8V555.7z"/>
			<path fill="#FFFFFF" d="M442.7,136.5c-2,0-3.6-1.6-3.6-3.6V72.4c0-2-1.6-3.6-3.6-3.6h-13.4c-2,0-3.6,1.6-3.6,3.6l0,81
				c0,2,1.6,3.6,3.6,3.6h79.4c2,0,3.6-1.6,3.6-3.6v-13.4c0-2-1.6-3.6-3.6-3.6L442.7,136.5L442.7,136.5z"/>
			<path fill="#FFFFFF" d="M431.3-10.9c-45.2,0-85.9,19.7-113.8,50.9c-11.3,12.7-19.3,24.3-25.9,40.2c-1.1,2.9,1.4,3.6,2.8,4
				c6.5,1.9,12.8,4.1,18.9,6.7c1.5,0.6,4.2,1.4,5.7-1.1c5.3-12.4,11.3-20.7,20.1-30.6C361.7,34,394.7,18,431.3,18
				c68.4,0,123.8,55.4,123.8,123.8c0,4.1-0.2,8.1-0.6,12.1c-6.1,62.7-58.9,111.7-123.2,111.7c-8.8,0-9.1,5.5-9.1,5.5
				s-0.5,14.2,0.1,19.6c0.4,3.9,3.5,3.8,3.5,3.8c3,0.2,2.5,0,5.5,0c80.2,0,146-61.9,152.2-140.5c0.3-4,0.5-8.1,0.5-12.2
				C584.1,57.5,515.7-10.9,431.3-10.9z"/>
		</g>
	</g>
</g>
</svg>
