<?xml version="1.0" encoding="utf-8"?>
<!-- Generator: Adobe Illustrator 17.1.0, SVG Export Plug-In . SVG Version: 6.00 Build 0)  -->
<!DOCTYPE svg PUBLIC "-//W3C//DTD SVG 1.1//EN" "http://www.w3.org/Graphics/SVG/1.1/DTD/svg11.dtd">
<svg version="1.1" id="Capa_1" xmlns="http://www.w3.org/2000/svg" xmlns:xlink="http://www.w3.org/1999/xlink" x="0px" y="0px"
	 viewBox="0 0 600 600" enable-background="new 0 0 600 600" xml:space="preserve">
<circle fill="#FF632F" stroke="#FF632F" stroke-width="30" stroke-miterlimit="10" cx="300" cy="300" r="257.4"/>
<g>
	<path fill="#FFFFFF" d="M273.4,309.4c0,9.6-7.8,17.4-17.4,17.4c-9.7,0-17.4-7.8-17.4-17.4s7.8-17.4,17.4-17.4
		C265.6,291.9,273.4,299.7,273.4,309.4z M344.1,291.9c-9.6,0-17.4,7.8-17.4,17.4s7.8,17.4,17.4,17.4c9.6,0,17.4-7.8,17.4-17.4
		S353.7,291.9,344.1,291.9z M418.5,362.8v-2c-2,5.8-4.4,11.3-7,16.6c0.5,3.3,1.4,7.8,2.8,13.1c7.2,11.1,27.4,25.2,41.2,28.8
		c-7.4,3.2-16.5,4.5-25.2,3.1c8,10.1,19.3,19.3,35.2,24.7c-37.3,33.6-98.6,34.3-141.5,8.2c-8.3,2.4-16.4,3.7-24,3.7
		s-15.7-1.3-24-3.7c-42.9,26.1-104.3,25.3-141.5-8.2c16.2-5.6,27.7-15,35.7-25.3c-7.1,0.3-14.1-1-20.2-3.6
		c10.2-2.7,23.7-11,33.1-19.5c3.3-8.6,4.8-16.4,5.6-21.3c-2.6-5.3-5-10.9-7-16.6v2h-21c-16.6,0-30.1-13.5-30.1-30.1v-33.1
		c0-11.4,6.4-21.4,15.8-26.5c0.3-47,14-83.7,40.8-109.1c26.5-25.1,64.6-37.9,113.1-37.9s86.5,12.8,113.1,38
		c26.8,25.4,40.5,62.1,40.8,109.1c9.4,5.1,15.8,15.1,15.8,26.5v33.1c0,16.6-13.5,30.1-30.1,30.1L418.5,362.8L418.5,362.8z
		 M406,309.4c0-7.7-0.4-15-1-22c-13.6-12.4-38.4-21.8-69.7-25.1c4.9,4.4,9.3,10.4,11.5,18.9c-18.2-13.3-56.4-17.4-69.1-31.7l0,0
		c-20.2-13.4-25.5-32.5-25.6-24.5c-0.8,38-27.7,67.6-57.6,71.8c-0.2,4.2-0.3,8.4-0.3,12.8c0,16.1,2.6,30.7,7.1,43.9
		c16.8,20.2,44.5,26,69.1,27.5c4.5-7.3,14.8-12.3,26.7-12.3c16.1,0,29.2,9.3,29.2,20.7c0,11.5-13.1,20.7-29.2,20.7
		c-12.4,0-23-5.5-27.2-13.2c-17.2-1-36-3.9-52.8-11.9c23.6,34.8,60.3,53.2,83.2,53.2C336,438.1,406,392.7,406,309.4z M424.1,269.5
		h11.6c-1.9-82-48.7-125.3-135.7-125.3s-133.8,43.3-135.7,125.3h11.6c4.3-27.7,13.2-50.4,26.8-67.8c21.6-27.8,54.4-42,97.4-42
		s75.7,14.1,97.4,42C411,219.2,419.9,241.9,424.1,269.5z"/>
</g>
</svg>
