<?xml version="1.0" encoding="utf-8"?>
<!-- Generator: Adobe Illustrator 17.1.0, SVG Export Plug-In . SVG Version: 6.00 Build 0)  -->
<!DOCTYPE svg PUBLIC "-//W3C//DTD SVG 1.1//EN" "http://www.w3.org/Graphics/SVG/1.1/DTD/svg11.dtd">
<svg version="1.1" id="Capa_1" xmlns="http://www.w3.org/2000/svg" xmlns:xlink="http://www.w3.org/1999/xlink" x="0px" y="0px"
	 viewBox="-229.2 -229.2 1056.1 1053.1" enable-background="new -229.2 -229.2 1056.1 1053.1" xml:space="preserve">
<g>
	<path fill="#FFFFFF" stroke="#FFFFFF" stroke-miterlimit="10" d="M259.1,322.5c0,16.9-13.7,30.7-30.7,30.7s-30.7-13.7-30.7-30.7
		s13.7-30.7,30.7-30.7C245.4,291.8,259.1,305.5,259.1,322.5z M383.6,291.8c-16.9,0-30.7,13.7-30.7,30.7s13.7,30.7,30.7,30.7
		c16.9,0,30.7-13.7,30.7-30.7S400.5,291.8,383.6,291.8z M514.5,416.6v-3.5c-3.5,10.2-7.7,19.9-12.3,29.3c0.8,5.8,2.4,13.8,5,23
		c12.6,19.5,48.2,44.3,72.5,50.7c-13.1,5.6-29,7.9-44.4,5.5c14.1,17.8,34,33.9,62,43.5c-65.6,59.1-173.6,60.4-249.1,14.5
		c-14.6,4.3-28.9,6.6-42.3,6.6s-27.7-2.3-42.3-6.6c-75.5,45.9-183.6,44.6-249.1-14.5c28.6-9.8,48.7-26.4,62.8-44.5
		c-12.5,0.5-24.9-1.8-35.6-6.3c17.9-4.7,41.7-19.3,58.2-34.4c5.8-15.2,8.5-28.8,9.8-37.5c-4.5-9.4-8.8-19.1-12.3-29.3v3.5H60.4
		c-29.3,0-53-23.7-53-53v-58.3c0-20.1,11.2-37.6,27.8-46.6c0.6-82.7,24.7-147.3,71.8-192C153.7,22.5,220.7,0,306,0
		c85.3,0,152.3,22.5,199,66.8c47.1,44.7,71.2,109.3,71.8,192c16.5,9,27.8,26.5,27.8,46.6v58.3c0,29.3-23.7,53-53,53L514.5,416.6
		L514.5,416.6z M492.5,322.6c0-13.6-0.7-26.4-1.7-38.8c-23.9-21.9-67.6-38.4-122.7-44.2c8.7,7.8,16.3,18.3,20.3,33.2
		c-32.1-23.4-99.2-30.7-121.6-55.8l0,0c-35.5-23.5-44.8-57.2-45.1-43.2c-1.4,66.8-48.8,119-101.4,126.3c-0.3,7.4-0.6,14.8-0.6,22.5
		c0,28.3,4.6,54,12.5,77.2c29.6,35.6,78.4,45.7,121.6,48.4c8-12.8,26-21.7,47-21.7c28.4,0,51.4,16.3,51.4,36.5
		c0,20.2-23,36.5-51.4,36.5c-21.9,0-40.5-9.7-47.9-23.3c-30.2-1.8-63.4-6.9-93-20.9c41.6,61.3,106.1,93.7,146.4,93.7
		C369.3,549.1,492.5,469.2,492.5,322.6z M524.5,252.4h20.4C541.5,108,459.1,31.8,306,31.8S70.5,108,67.1,252.4h20.4
		c7.5-48.7,23.2-88.7,47.1-119.4c38.1-49,95.8-73.9,171.4-73.9S439.3,83.9,477.4,133C501.3,163.7,517.1,203.7,524.5,252.4z"/>
</g>
<circle fill="none" stroke="#FFFFFF" stroke-width="30" stroke-miterlimit="10" cx="306" cy="306" r="453"/>
</svg>
