<?xml version="1.0" encoding="utf-8"?>
<!-- Generator: Adobe Illustrator 17.1.0, SVG Export Plug-In . SVG Version: 6.00 Build 0)  -->
<!DOCTYPE svg PUBLIC "-//W3C//DTD SVG 1.1//EN" "http://www.w3.org/Graphics/SVG/1.1/DTD/svg11.dtd">
<svg version="1.1" id="Capa_1" xmlns="http://www.w3.org/2000/svg" xmlns:xlink="http://www.w3.org/1999/xlink" x="0px" y="0px"
	 viewBox="0 0 600 600" enable-background="new 0 0 600 600" xml:space="preserve">
<circle fill="#FF632F" stroke="#FF632F" stroke-width="30" stroke-miterlimit="10" cx="300" cy="300" r="257.4"/>
<g>
	<g>
		<polygon fill="#FFFFFF" points="290.9,170.2 297.8,170.2 297.8,161.5 306.7,161.5 306.7,154.6 297.8,154.6 297.8,145.9 
			290.9,145.9 290.9,154.6 282.3,154.6 282.3,161.5 290.9,161.5 		"/>
		<path fill="#FFFFFF" d="M366.1,214.8V141c0,0-71.5-55.7-143.1,0v73.8c0,0,22.8-22.8,70.7-23.6
			C341.5,190.5,366.1,214.8,366.1,214.8z M268,149.6c0-8.4,6.8-15.2,15.1-15.2c4.5,0,8.6,2,11.4,5.2c2.8-3.1,6.8-5.2,11.4-5.2
			c8.4,0,15.1,6.8,15.1,15.2c0,4.6-2.1,8.7-5.3,11.5l0,0l-20.9,20.5l-21.5-20.5l0,0C270.1,158.4,268,154.3,268,149.6z"/>
		<path fill="#FFFFFF" d="M217.6,242.7c0,42.5,34.5,95.8,77,95.8s77-53.3,77-95.8c0-2-0.2-4-0.3-6l-12.2-12
			c-1.1-1-21.8-20.3-62.3-20.3h-2.1c-42.2,0.7-62.2,19.5-63,20.3l-13.9,13.5C217.7,239.7,217.6,241.2,217.6,242.7z"/>
		<path fill="#FFFFFF" d="M374.6,314.9l-78.5,134.2l-70.7-134.2c0,0-64.9,5.9-83.2,96.1c-3.3,16.1,4,40.8,18.5,48.7
			c21.6,11.9,62.7,24.7,139.2,24c76.5,0.7,117.7-12.2,139.3-24c14.4-7.9,21.8-32.6,18.5-48.7C439.5,320.8,374.6,314.9,374.6,314.9z
			 M237.7,466.4c-27.7,0-53.2-10.6-54.5-11.1l5.8-13.7c0.3,0.2,35.9,14.9,65.3,8.2l3.3,14.5C251.1,465.8,244.4,466.4,237.7,466.4z
			 M354.8,469.2c-6.6,0-13.4-0.6-19.9-2.1l3.3-14.5c29.5,6.6,65-8.1,65.3-8.2l5.8,13.7C408,458.7,382.5,469.2,354.8,469.2z"/>
	</g>
</g>
</svg>
