<?xml version="1.0" encoding="utf-8"?>
<!-- Generator: Adobe Illustrator 17.1.0, SVG Export Plug-In . SVG Version: 6.00 Build 0)  -->
<!DOCTYPE svg PUBLIC "-//W3C//DTD SVG 1.1//EN" "http://www.w3.org/Graphics/SVG/1.1/DTD/svg11.dtd">
<svg version="1.1" id="Capa_1" xmlns="http://www.w3.org/2000/svg" xmlns:xlink="http://www.w3.org/1999/xlink" x="0px" y="0px"
	 viewBox="-229.2 -229.2 1056.1 1053.1" enable-background="new -229.2 -229.2 1056.1 1053.1" xml:space="preserve">
<circle fill="none" stroke="#FFFFFF" stroke-width="30" stroke-miterlimit="10" cx="306" cy="306" r="453"/>
<g>
	<g>
		<polygon fill="#FFFFFF" points="289.9,77.6 302.1,77.6 302.1,62.2 317.8,62.2 317.8,50 302.1,50 302.1,34.7 289.9,34.7 289.9,50 
			274.9,50 274.9,62.2 289.9,62.2 		"/>
		<path fill="#FFFFFF" d="M422.3,156.1V26.1c0,0-125.9-98.1-251.9,0v129.9c0,0,40.1-40.1,124.4-41.5
			C379.1,113.2,422.3,156.1,422.3,156.1z M249.7,41.3c0-14.7,11.9-26.7,26.6-26.7c8,0,15.1,3.5,20,9.1c4.9-5.5,12-9.1,20-9.1
			c14.7,0,26.6,11.9,26.6,26.7c0,8.1-3.7,15.4-9.4,20.3h0l-36.7,36l-37.8-36h0C253.4,56.8,249.7,49.5,249.7,41.3z"/>
		<path fill="#FFFFFF" d="M160.9,205.2c0,74.8,60.7,168.6,135.5,168.6c74.8,0,135.5-93.8,135.5-168.6c0-3.5-0.3-7-0.5-10.5
			L410,173.6c-1.9-1.8-38.4-35.8-109.7-35.8l-3.7,0c-74.3,1.2-109.4,34.4-110.9,35.8l-24.5,23.7
			C161.1,199.9,160.9,202.5,160.9,205.2z"/>
		<path fill="#FFFFFF" d="M437.3,332.3L299.1,568.6L174.7,332.3c0,0-114.3,10.3-146.4,169.1c-5.8,28.4,7.1,71.8,32.6,85.8
			c38,20.9,110.4,43.5,245.1,42.3c134.7,1.2,207.1-21.4,245.2-42.3c25.4-13.9,38.3-57.3,32.6-85.8
			C551.6,342.6,437.3,332.3,437.3,332.3z M196.4,598.9c-48.8,0-93.6-18.6-95.9-19.6l10.2-24.2c0.6,0.3,63.2,26.2,115,14.5l5.8,25.6
			C219.9,597.9,208.1,598.9,196.4,598.9z M402.5,603.9c-11.6,0-23.5-1.1-35.1-3.7l5.8-25.6c52,11.7,114.4-14.2,115-14.5l10.2,24.2
			C496.1,585.3,451.3,603.9,402.5,603.9z"/>
	</g>
</g>
</svg>
